HIERARCHY
ROOT Hips
{
   OFFSET 0.00000 0.00000 0.00000
   CHANNELS 6 Xposition Yposition Zposition Zrotation Xrotation Yrotation
   JOINT RightUpLeg
   {
      OFFSET -9.840380 -9.533777 0.111817
      CHANNELS 3 Zrotation Xrotation Yrotation
      JOINT RightLeg
      {
         OFFSET 0.000000 -48.864969 1.509970
         CHANNELS 3 Zrotation Xrotation Yrotation
         JOINT RightFoot
         {
            OFFSET 0.278904 -46.301641 -1.606649
            CHANNELS 3 Zrotation Xrotation Yrotation
            JOINT RightToes
            {
               OFFSET 0.044000 -4.856599 9.349010
               CHANNELS 3 Zrotation Xrotation Yrotation
               End Site
               {
                  OFFSET -0.088000 -0.151193 10.757769
               }
            }
         }
      }
   }
   JOINT Spine
   {
      OFFSET 0.000000 13.079551 0.000000
      CHANNELS 3 Zrotation Xrotation Yrotation
      JOINT Spine1
      {
         OFFSET 0.000000 28.223142 0.140429
         CHANNELS 3 Zrotation Xrotation Yrotation
         JOINT HEad
         {
            OFFSET 0.000000 9.607577 0.012475
            CHANNELS 3 Zrotation Xrotation Yrotation
            End Site
            {
               OFFSET -0.319000 14.051621 2.765345
            }
         }
         JOINT LeftShoulder1
         {
            OFFSET 9.889000 -0.398477 -0.242000
            CHANNELS 3 Zrotation Xrotation Yrotation
            JOINT LeftArm
            {
               OFFSET 11.310971 -0.003718 0.354335
               CHANNELS 3 Zrotation Xrotation Yrotation
               JOINT LeftForeArm
               {
                  OFFSET 36.043591 0.109058 -1.566774
                  CHANNELS 3 Zrotation Xrotation Yrotation
                  JOINT LeftHand
                  {
                     OFFSET 30.320732 0.093898 1.124376
                     CHANNELS 3 Zrotation Xrotation Yrotation
                     End Site
                     {
                        OFFSET 18.418731 -0.660000 1.653201
                     }
                  }
               }
            }
         }
         JOINT RightShoulder
         {
            OFFSET -9.889000 -0.398477 -0.242000
            CHANNELS 3 Zrotation Xrotation Yrotation
            JOINT RightArm
            {
               OFFSET -11.310971 -0.003718 0.354335
               CHANNELS 3 Zrotation Xrotation Yrotation
               JOINT RightForeArm
               {
                  OFFSET -36.186809 0.109058 -1.566774
                  CHANNELS 3 Zrotation Xrotation Yrotation
                  JOINT RightHand
                  {
                     OFFSET -30.241313 0.093898 1.124376
                     CHANNELS 3 Zrotation Xrotation Yrotation
                     End Site
                     {
                        OFFSET -18.294322 -0.660000 1.653201
                     }
                  }
               }
            }
         }
      }
   }
   JOINT LeftUpLeg
   {
      OFFSET 9.840380 -9.533777 0.111817
      CHANNELS 3 Zrotation Xrotation Yrotation
      JOINT LeftLeg
      {
         OFFSET 0.000000 -48.864969 1.509970
         CHANNELS 3 Zrotation Xrotation Yrotation
         JOINT LeftFoot
         {
            OFFSET -0.278904 -46.301641 -1.606649
            CHANNELS 3 Zrotation Xrotation Yrotation
            JOINT LeftToes
            {
               OFFSET -0.044000 -4.856599 9.349010
               CHANNELS 3 Zrotation Xrotation Yrotation
               End Site
               {
                  OFFSET 0.088000 -0.052193 10.757769
               }
            }
         }
      }
   }
}
MOTION
Frames: 12
Frame Time: 0.016667
-297.289195 98.958682 9.916019 -21.298710 46.506061 -153.654435 -20.958775 46.024642 48.897335 4.667911 32.165021 46.647180 -50.848641 33.836737 1.243032 -0.585590 -23.967328 -32.760377 34.306073 24.430186 139.239991 39.153373 -23.552188 -129.131461 -35.008794 19.784971 37.394326 -59.314633 130.126606 77.818210 242.185858 101.124830 117.085179 -18.420127 120.984165 -43.428259 -96.131921 -45.058406 -93.784781 16.306783 32.777210 32.446578 -22.168714 142.627573 325.151756 68.686978 196.912755 69.522966 -56.500100 -46.207459 -13.709567 36.895289 24.452789 -26.561918 -26.120267 11.510939 20.179720 62.031518 -4.285923 34.530216 -9.166052 29.436794 -31.145024
-294.283042 97.809132 10.512328 -18.530517 43.707156 -157.069749 -20.450973 44.882481 55.639927 7.817988 29.220963 33.906838 -53.951394 31.366435 1.744461 -1.618328 -23.140167 -32.254619 34.904278 24.737115 143.504665 38.497292 -22.821624 -128.446803 -35.492921 18.283962 37.981941 -65.751062 130.825375 83.173966 245.584451 102.048135 114.883946 -19.675874 124.080140 -41.688094 -94.789939 -46.258064 -92.731300 13.235320 36.075601 34.035963 -27.018260 143.512328 330.282376 69.883442 197.442273 63.088115 -58.035653 -48.943770 -15.669501 37.567454 22.120300 -24.303688 -25.855937 11.271971 15.828383 62.693118 -4.367772 36.245656 -9.881811 31.156014 -32.081996
-291.345668 96.782759 10.926447 -15.995827 42.100361 -159.719561 -19.567829 44.508781 62.470372 10.852345 26.922162 22.497868 -58.808366 27.616400 2.575047 -3.079200 -23.708990 -31.822821 37.788619 25.713265 147.777864 38.321172 -21.658731 -127.350639 -35.910840 16.118326 38.827853 -72.168639 132.793357 87.930073 250.011070 101.016783 114.130767 -22.014309 128.983833 -40.979991 -95.398468 -46.322845 -98.304488 10.799842 39.889695 35.042856 -29.536200 143.191637 336.859875 71.583627 196.638032 58.191074 -59.432830 -51.340466 -17.634770 38.327644 20.598754 -22.066868 -24.929437 12.630656 10.137398 62.487106 -4.548191 38.499041 -10.552605 32.555120 -32.634815
-288.585716 95.813807 11.173291 -14.113473 41.314643 -162.184303 -18.647591 44.434342 68.084835 14.114564 24.357986 12.484397 -60.745681 26.093708 3.442228 -4.292488 -24.063163 -31.573133 39.029234 26.054863 150.649685 38.885179 -21.794835 -126.391790 -35.955468 15.532012 39.614616 -77.920758 133.679042 92.654918 252.995097 100.844683 112.124495 -24.533969 133.378650 -40.211882 -95.214251 -46.291064 -98.635411 8.066564 43.441280 36.196051 -33.644108 142.466941 342.245562 72.376209 196.336247 53.153724 -60.593156 -53.509191 -19.413273 38.670994 19.356367 -20.809737 -23.354865 14.324621 5.605056 62.436918 -4.411085 40.598043 -11.405033 33.941433 -33.411175
-286.034160 94.966439 11.363424 -12.558466 40.487374 -163.453585 -18.693582 44.298708 73.247338 15.930742 20.170023 5.278602 -63.390357 25.005328 4.565975 -5.555918 -24.561987 -31.067734 39.803938 26.766087 152.641573 39.159213 -22.370290 -125.888678 -35.356638 15.317256 40.449770 -83.913559 134.676413 96.910856 255.214226 100.653656 110.523157 -27.173616 137.578397 -39.755116 -95.723722 -45.877189 -103.172336 5.338801 45.958526 37.309888 -38.369288 141.360587 347.252746 72.585889 195.989273 48.396258 -61.446882 -55.305169 -20.846431 39.529266 17.936531 -20.522883 -21.481715 14.250904 1.290999 62.223460 -4.314934 41.746837 -12.466067 35.328013 -34.599935
-283.514934 94.263657 11.572560 -11.635292 40.325095 -164.454030 -17.900369 44.139681 76.623029 17.336429 17.486975 1.117486 -64.081572 24.491284 5.264195 -6.588733 -24.619057 -30.652318 40.317138 27.111036 153.838946 39.775552 -22.856776 -125.534437 -34.471067 15.105226 41.402059 -89.506071 135.333969 101.027869 257.172113 100.381398 109.185765 -29.186464 141.456660 -39.218034 -95.437899 -46.111160 -103.933124 2.671304 48.683365 38.556257 -42.435057 140.581276 351.303349 72.300462 195.670740 44.208410 -62.136478 -57.167990 -22.054018 39.909734 17.939753 -20.146124 -20.114859 13.953784 -1.864933 61.879472 -4.332438 42.737716 -13.135554 36.651598 -35.061502
-281.236930 93.701485 11.797519 -10.800445 40.672229 -165.315139 -16.732533 43.976781 77.848891 19.018730 15.871560 -0.873462 -65.795212 23.695436 5.460694 -7.345038 -24.543680 -30.356492 40.515637 27.977881 154.869280 40.536831 -23.591002 -125.022829 -33.420300 14.679857 42.484511 -94.867598 136.195488 104.770048 258.771935 99.803018 108.387002 -30.806356 145.476978 -39.077264 -95.828872 -46.164149 -106.603701 0.010323 51.067846 39.974273 -45.849147 140.076784 354.803575 71.819255 195.342932 40.485502 -62.539958 -58.587846 -23.070173 40.417446 18.490273 -19.792061 -19.727994 14.314263 -2.582213 62.129566 -4.472863 43.299038 -13.408781 37.980001 -34.882913
-279.298797 93.381299 11.992233 -10.188556 41.460423 -165.926305 -14.189592 44.281462 77.319749 19.794438 16.017362 -1.502358 -64.564392 23.375633 4.838303 -7.787321 -24.018002 -30.252803 40.246200 29.342858 155.620697 40.955621 -24.285164 -124.770535 -32.310196 14.093923 43.686064 -100.085678 136.837089 108.227353 260.166304 99.104064 107.957847 -31.787601 149.139803 -39.234430 -95.666020 -46.421712 -106.934507 -2.630257 52.964862 41.593926 -48.557874 139.989003 357.796072 71.261071 194.802268 37.371667 -62.596792 -59.709104 -24.041434 40.598081 19.754174 -18.824141 -20.232952 15.005806 -0.684118 62.794382 -4.396802 44.047180 -13.084472 39.398017 -33.605473
-277.697921 93.222674 12.126902 -9.728039 41.949710 -166.550994 -11.649919 44.366231 76.130771 19.493124 17.448502 -0.579547 -64.332042 22.669546 4.191489 -8.671686 -24.163309 -29.641785 40.134086 30.553629 155.890954 41.435623 -24.826766 -124.924215 -31.181688 13.574260 44.954147 -105.258276 137.518346 111.278828 261.143704 98.329801 107.733742 -32.476986 152.569337 -39.867015 -95.878658 -46.936558 -108.400416 -5.207978 54.334715 43.410039 -50.941972 140.161561 359.954903 70.513459 194.174724 34.907529 -62.375439 -60.635817 -25.118808 40.853837 20.501257 -18.433057 -20.747371 15.294472 2.291761 63.801460 -4.518355 44.247014 -12.769181 40.901140 -32.360402
-276.407619 93.179091 12.211523 -9.526266 42.132596 -167.093994 -8.556769 44.342678 74.182500 18.421326 20.274778 0.414699 -65.257096 23.062178 3.563765 -9.541312 -23.994786 -28.677953 39.553195 31.637330 155.946005 41.890865 -25.242047 -125.304711 -29.812700 13.321535 46.204362 -110.576173 138.305293 114.393258 261.031662 97.519303 107.176876 -32.985210 155.658427 -40.969578 -95.790493 -47.512445 -108.623941 -8.156777 54.692419 45.051023 -53.214677 140.826425 361.792361 69.620344 193.426859 33.270254 -61.650756 -61.144789 -26.663862 40.986514 20.872122 -18.062060 -22.022786 15.611171 6.272678 65.249740 -4.748927 44.333566 -12.422104 42.338068 -31.004086
-275.311580 93.267535 12.292514 -9.431277 42.545033 -166.942814 -6.805503 44.540312 72.280654 17.880699 22.047332 1.328799 -65.576025 23.189658 2.897098 -10.581743 -23.887808 -27.271822 38.475429 32.374127 156.461807 41.869312 -25.979039 -124.722697 -28.082593 13.922845 47.318161 -115.640116 136.102707 119.831544 263.997904 99.452670 110.857747 -32.656627 157.777452 -41.859672 -95.958420 -48.713094 -109.098516 -12.532006 55.851136 45.169585 -53.274386 141.447685 364.880645 66.957157 192.705687 30.717895 -59.859675 -61.327797 -30.228474 41.728696 20.747647 -17.475698 -23.275565 15.446025 9.382360 66.197230 -4.984215 44.154185 -11.892760 44.195746 -29.541200
-274.355999 93.364733 12.314079 -9.364896 42.524488 -167.204670 -6.694677 44.018008 69.828712 17.537020 20.880735 1.489599 -58.412768 23.874535 1.764740 -11.619402 -23.641033 -25.896341 37.609163 33.299781 156.769343 41.571711 -26.260223 -125.109463 -26.860547 14.156948 48.549941 -119.261742 137.294370 122.007273 263.556564 99.102678 109.435791 -33.321413 160.193344 -42.840589 -95.814884 -49.233841 -109.681548 -16.219925 55.239527 47.371819 -55.601807 142.280381 367.226241 65.707752 192.139054 29.629210 -58.915170 -61.832828 -32.120501 42.238187 20.393932 -17.600865 -23.439679 14.836120 11.269700 66.785515 -5.591589 43.426182 -11.428271 46.416296 -28.375864
